# xmcd
#
# Track frame offsets: 
#        150
#        22316
#        37541
#        55989
#        68239
#        85040
#        102158
#        120420
#        129737
#        151413
#        166855
#        188132
#        199840
#        207046
#        226388
#        245124
#        265377
#        273457
#        287638
#        303312
#        319908
#
# Disc length: 4499 seconds
#
# Revision: 0
# Processed by: cddbd v1.5.2PL0 Copyright (c) Steve Scherf et al.
# Submitted via: ExactAudioCopy v0.99pb5
#
DISCID=2a119115
DTITLE=Various Artist - Target Practice
DYEAR=2007
DGENRE=Hip-Hop
TTITLE0=City of Heroes by The Super Chron Flight Bros. f/ Baron of Red
TTITLE0=C
TTITLE1=Jimmy Swagger by The Invizibl Men  
TTITLE2=Ghetto Factory by Hi-Coup
TTITLE3=Black Blood by Kong
TTITLE4=New Ghost City by Keith Masters
TTITLE5=Slaughterhouse by The Super Chron Flight Brothers
TTITLE6=Project Doo-Wop by Hi-Coup feat. AKIR
TTITLE7=Bookay (dubplate) by Karniege
TTITLE8=Armor Truck Rap by Marq Spekt
TTITLE9=Black Ops by The Super Chron Flight Bros.
TTITLE10=Choices by The Reavers feat. Nathaniel Roberts
TTITLE11=Love and War by Priviledge
TTITLE12=October by billy woods 
TTITLE13=Prestochango by Marq Spekt
TTITLE14=Shadows (Dev1 remix) by The Reavers
TTITLE15=Pawns by Hi-Coup, billy woods and Karniege 
TTITLE16=Bed Stuy (dub plate) by Megalon
TTITLE17=Pump Up the Volume by billy woods and Nasa 
TTITLE18=No Fly Zone by Keith Masters
TTITLE19=Nyce Kidz by Invizibl Men and Lo Deck
TTITLE20=Brewsters Millions by The Super Chron Flight Bros.
EXTD=
EXTT0=
EXTT1=
EXTT2=
EXTT3=
EXTT4=
EXTT5=
EXTT6=
EXTT7=
EXTT8=
EXTT9=
EXTT10=
EXTT11=
EXTT12=
EXTT13=
EXTT14=
EXTT15=
EXTT16=
EXTT17=
EXTT18=
EXTT19=
EXTT20=
PLAYORDER=
